<?xml version="1.0" encoding="UTF-8"?>
<svg width="20px" height="23px" viewBox="0 0 20 23" version="1.1" xmlns="http://www.w3.org/2000/svg" xmlns:xlink="http://www.w3.org/1999/xlink">
    <!-- Generator: Sketch 43.2 (39069) - http://www.bohemiancoding.com/sketch -->
    <title>feather-and-ink-bottle (1)</title>
    <desc>Created with Sketch.</desc>
    <defs></defs>
    <g id="User" stroke="none" stroke-width="1" fill="none" fill-rule="evenodd">
        <g id="dashboard" transform="translate(-622.000000, -822.000000)" fill-rule="nonzero" fill="#27384A">
            <g id="feather-and-ink-bottle-(1)" transform="translate(622.000000, 822.000000)">
                <path d="M16.6480768,14.5289428 C16.6110351,14.4925004 16.5665514,14.4655622 16.5182629,14.4495343 L16.5182629,13.474362 C16.5182629,13.2879882 16.3678578,13.1369321 16.1825372,13.1369321 L12.4808259,13.1369321 C12.2953934,13.1369321 12.1451002,13.2879882 12.1451002,13.474362 L12.1451002,14.4495343 C12.0966998,14.465506 12.0521042,14.4925004 12.0150625,14.5289991 C10.5581809,15.9628511 9.64517491,18.5723649 9.57243434,21.5095795 C9.57025213,21.6005168 9.6045521,21.6884736 9.66772448,21.7535413 C9.73089686,21.8186652 9.817626,21.8554451 9.90804811,21.8554451 L18.7554829,21.8554451 C18.8459609,21.8554451 18.9326341,21.8187215 18.9958624,21.7535413 C19.0590348,21.6884736 19.0932788,21.6004606 19.0910966,21.5095795 C19.018412,18.57214 18.1051822,15.9626261 16.6480768,14.5289428 Z" id="Shape"></path>
                <path d="M12.1267472,0.135028186 C12.0374442,0.0479150414 11.9197164,0 11.795386,0 C11.7497273,0 11.7042364,0.00663612076 11.6604242,0.019683409 C10.09667,0.484999199 8.57583267,1.2468596 7.26219405,2.2228755 C6.19022196,3.01937871 5.22159742,3.96705049 4.3831785,5.03968381 C4.18789806,5.28949439 3.99966786,5.54644723 3.82548219,5.80058816 C3.72504426,5.93989046 3.70702698,6.12362103 3.77814487,6.27979482 C3.78698565,6.29953446 3.79593833,6.31949906 3.80449934,6.3395199 C3.86560141,6.48191531 3.91937347,6.63572709 3.96419285,6.79645618 C4.11806712,7.35057227 4.16104001,7.94068087 4.09271983,8.50593214 C4.0034168,8.10680884 3.88210792,7.73833543 3.73019205,7.40523591 C3.65510141,7.24045765 3.48998033,7.13107414 3.31042305,7.12657507 L3.29783333,7.12640636 C3.11978682,7.12640636 2.95819086,7.22504836 2.87588211,7.38386535 C2.53875758,8.03538619 2.28584423,8.65091451 2.10281778,9.26554301 C1.87900066,10.0167744 1.73279213,10.847133 1.66827685,11.7335051 C1.59419338,12.7518122 1.63912467,13.7819856 1.68248923,14.7789221 C1.68830848,14.9122632 1.69418368,15.046504 1.69977911,15.1815884 C1.70895561,15.4011428 1.86490019,15.585492 2.07898126,15.6298078 C2.11053947,15.6363314 2.142937,15.6396495 2.17505476,15.6396495 C2.35668235,15.6396495 2.52499282,15.5331904 2.60433599,15.3672311 L3.8361135,12.7146949 L3.87500173,12.6311248 C3.97739806,12.4110643 4.07968248,12.1911162 4.18263836,11.9690311 C4.879437,10.4646563 5.66923166,8.7596794 6.60154187,7.15497542 C7.22929293,6.07480617 7.99648206,4.86961916 9.00399482,3.91013732 C8.39560393,5.11796754 7.87472554,6.37607481 7.37018581,7.59492773 C7.35927472,7.61899773 6.26855795,10.0113755 5.80894949,10.9300283 L5.80458506,10.9388015 C5.51966587,11.5084394 5.22495468,12.0975357 4.95139421,12.6760592 C3.9668227,14.7580015 -0.517800904,21.1814289 0.0769371345,22.1076739 C0.395205077,22.6033022 4.42189886,16.3031491 4.42189886,16.3031491 C4.70726568,16.1786375 4.93947594,16.0734156 5.15059144,15.972749 C6.59930369,15.2827612 7.69858147,14.5000363 8.51137334,13.58009 C8.98916693,13.0390212 9.41385991,12.4009976 9.88835221,11.5113075 C10.1948138,10.9366644 10.4644015,10.3381201 10.6897294,9.732321 C10.7392489,9.59909244 10.7275545,9.4518043 10.6573878,9.32808002 C10.5872212,9.20446821 10.4671433,9.11926717 10.3275933,9.09429736 C9.92628921,9.02236855 9.53623192,8.89380777 9.17616614,8.71620719 C9.56247448,8.75979188 9.93647289,8.76659671 10.2874741,8.73639674 C10.4501891,8.7223934 10.6099946,8.70023551 10.7626378,8.67059792 C10.9414117,8.63584264 11.0865572,8.49901483 11.1325516,8.32192038 C11.1413364,8.28789621 11.1500093,8.25370331 11.1585703,8.2200728 C11.1921429,8.08735039 11.2239249,7.94804809 11.2553153,7.81093909 L11.2693038,7.7497518 C11.4837206,6.81428373 11.6148775,5.50977986 11.7417258,4.24824205 C11.8775828,2.897679 12.018028,1.50116925 12.2551623,0.600006546 C12.2990864,0.433428667 12.2497907,0.255209458 12.1267472,0.135028186 Z" id="Shape"></path>
            </g>
        </g>
    </g>
</svg>