<svg width="15" height="14" viewBox="0 0 15 14" xmlns="http://www.w3.org/2000/svg"><path d="M7.14 0C3.197 0 0 3.136 0 7s3.198 7 7.14 7c3.94 0 7.138-3.136 7.138-7S11.08 0 7.14 0zm-.715 10.5h1.428v1.4H6.425v-1.4zm2.906-4.025l-.643.644c-.514.511-.835.931-.835 1.981H6.425v-.35c0-.77.322-1.47.836-1.981l.885-.882c.264-.252.421-.602.421-.987 0-.77-.643-1.4-1.428-1.4-.785 0-1.428.63-1.428 1.4H4.284c0-1.547 1.277-2.8 2.855-2.8s2.856 1.253 2.856 2.8c0 .616-.257 1.176-.664 1.575z" fill="#FFFFFF" fill-rule="evenodd" opacity=".5"/></svg>