<svg width="14" height="18" viewBox="0 0 14 18" xmlns="http://www.w3.org/2000/svg"><title>Group</title><g fill="#68A13C" fill-rule="evenodd"><path d="M9.133 3.425c-.775-.108-1.331-.96-1.242-1.902.088-.943.788-1.62 1.563-1.512.774.108 1.33.96 1.242 1.903-.088.942-.788 1.619-1.563 1.511z"/><path d="M1.02 15.532c1.097-2.264 4.507-9.581 5.073-10.775-1.105-.43-2.115-.038-2.91 1.316-.645 1.1-2.155.045-1.502-1.07C3.218 2.386 5.51 1.736 7.804 3.393c.096.069.526.358.623.428 1.427 1.03 2.752.835 3.742-.852.646-1.101 2.157-.045 1.503 1.069-1.264 2.152-3.037 2.973-4.903 2.278a91.39 91.39 0 0 0-1.674 3.724c.789.49 1.52 1.102 2.198 1.821.401.426.335.983.066 1.359-.065.171-2.14 1.763-3.039 2.42-.964.705-1.839-1.127-.878-1.829l1.742-1.273c-.56-.459-1.996-1.215-2.072-1.288l-2.59 5.352c-.567 1.175-2.072.11-1.501-1.069z"/></g></svg>