<svg width="15" height="17" viewBox="0 0 15 17" xmlns="http://www.w3.org/2000/svg"><title>Fill 95</title><path d="M10.867 12.375L4.925 8.917c.042-.192.075-.384.075-.584 0-.2-.033-.391-.075-.583L10.8 4.325A2.49 2.49 0 0 0 12.5 5C13.883 5 15 3.883 15 2.5S13.883 0 12.5 0A2.497 2.497 0 0 0 10 2.5c0 .2.033.392.075.583L4.2 6.508a2.49 2.49 0 0 0-1.7-.675 2.497 2.497 0 0 0-2.5 2.5c0 1.384 1.117 2.5 2.5 2.5a2.49 2.49 0 0 0 1.7-.675l5.933 3.467a2.351 2.351 0 0 0-.066.542A2.436 2.436 0 0 0 12.5 16.6a2.436 2.436 0 0 0 2.433-2.433 2.436 2.436 0 0 0-2.433-2.434c-.633 0-1.2.25-1.633.642z" fill="#626363" fill-rule="evenodd"/></svg>