<?xml version="1.0" encoding="UTF-8" standalone="no"?>
<svg width="22px" height="20px" viewBox="0 0 22 20" version="1.1" xmlns="http://www.w3.org/2000/svg" xmlns:xlink="http://www.w3.org/1999/xlink">
    <!-- Generator: Sketch Beta 42 (36780) - http://www.bohemiancoding.com/sketch -->
    <title>Combined Shape</title>
    <desc>Created with Sketch Beta.</desc>
    <defs></defs>
    <g id="blog" stroke="none" stroke-width="1" fill="none" fill-rule="evenodd">
        <g id="iPad-Portrait" transform="translate(-131.000000, -961.000000)" fill-rule="nonzero" fill="#E5E5E5">
            <path d="M152.36129,965.005818 C151.066129,965.569636 150.108065,966.296909 149.469355,967.187636 C148.688887,968.296909 148.262903,969.769455 148.227419,971.606 L151.580645,971.606 C152.166129,971.606 152.645161,972.096727 152.645161,972.696909 L152.645161,979.842364 C152.645161,980.442364 152.166129,980.933273 151.580645,980.933273 L144.608065,980.933273 C144.022581,980.933273 143.543548,980.442364 143.543548,979.842364 L143.543548,974.260545 C143.543548,971.533273 143.774016,969.405818 144.235306,967.878727 C144.696774,966.333273 145.565952,964.933273 146.825806,963.696909 C147.872403,962.678727 149.15,961.824182 150.640323,961.169636 C151.172581,960.933273 151.775806,961.169636 152.024194,961.696909 L152.893548,963.551273 C153.141758,964.096727 152.91129,964.769455 152.36129,965.005818 Z M139.835484,965.005818 C138.540323,965.569636 137.582258,966.296909 136.943548,967.187455 C136.162903,968.296727 135.737097,969.769273 135.701613,971.605818 L139.037097,971.605818 C139.622581,971.605818 140.101613,972.096545 140.101613,972.696727 L140.101613,979.842182 C140.101613,980.442182 139.622581,980.933091 139.037097,980.933091 L132.064516,980.933091 C131.479032,980.933091 131,980.442182 131,979.842182 L131,974.260364 C131,971.551273 131.248387,969.424182 131.709677,967.860364 C132.170968,966.314909 133.022581,964.914909 134.282258,963.696909 C135.31129,962.660545 136.606452,961.806 138.114516,961.151455 C138.646774,960.914909 139.25,961.151455 139.498387,961.678545 L140.367742,963.551273 C140.616129,964.096727 140.385484,964.769455 139.835484,965.005818 Z" id="Combined-Shape"></path>
        </g>
    </g>
</svg>